<svg xmlns="http://www.w3.org/2000/svg" width="42" height="28" viewBox="0 0 42 28"><path fill="#FFF" d="M36.324 12.21a4.857 4.857 0 0 0 2.044-3.96c0-2.676-2.144-4.84-4.795-4.84-2.65 0-4.795 2.164-4.795 4.84 0 1.636.806 3.088 2.045 3.96a8.3 8.3 0 0 0-2.834 1.678 10.72 10.72 0 0 0-3.89-2.14 6.159 6.159 0 0 0 2.934-5.251c0-3.39-2.717-6.133-6.075-6.133-3.357 0-6.074 2.752-6.074 6.133a6.14 6.14 0 0 0 2.933 5.252 10.81 10.81 0 0 0-3.847 2.114 8.358 8.358 0 0 0-2.801-1.644 4.857 4.857 0 0 0 2.044-3.96c0-2.677-2.144-4.841-4.795-4.841-2.65 0-4.795 2.164-4.795 4.84 0 1.637.806 3.088 2.045 3.96A8.492 8.492 0 0 0 0 20.249v.553c0 .017.017.034.033.034h10.164c-.058.461-.092.94-.092 1.418v.57c0 2.467 1.978 4.464 4.421 4.464h12.881c2.443 0 4.421-1.997 4.421-4.464v-.57c0-.478-.033-.957-.091-1.418h10.23c.016 0 .033-.017.033-.034v-.553c-.017-3.725-2.377-6.888-5.676-8.038zm-6.216-3.968c0-1.93 1.554-3.499 3.465-3.499 1.912 0 3.466 1.57 3.466 3.499 0 1.904-1.521 3.456-3.4 3.498h-.132c-1.887-.033-3.399-1.585-3.399-3.498zM16.197 6.497c0-2.643 2.127-4.791 4.745-4.791 2.618 0 4.745 2.148 4.745 4.79 0 2.551-1.986 4.64-4.47 4.783h-.549c-2.485-.143-4.471-2.232-4.471-4.782zM4.928 8.242c0-1.93 1.554-3.499 3.465-3.499 1.912 0 3.466 1.57 3.466 3.499 0 1.904-1.521 3.456-3.4 3.498h-.132c-1.878-.033-3.399-1.585-3.399-3.498zm5.501 11.242H1.346c.374-3.574 3.366-6.376 6.997-6.401h.1a6.988 6.988 0 0 1 4.53 1.703 11.047 11.047 0 0 0-2.544 4.698zm20.053 3.34c0 1.72-1.388 3.12-3.091 3.12H14.51c-1.704 0-3.092-1.4-3.092-3.12v-.571c0-5.21 4.122-9.472 9.25-9.623.091.008.19.008.282.008.092 0 .191 0 .283-.008 5.127.15 9.249 4.413 9.249 9.623v.57zm.989-3.34a11.018 11.018 0 0 0-2.518-4.665 7.022 7.022 0 0 1 4.57-1.736h.1c3.632.025 6.624 2.827 6.997 6.401h-9.15z"/></svg>