<svg width="12" height="13" viewBox="0 0 12 13" fill="none" xmlns="http://www.w3.org/2000/svg">
    <g clip-path="url(#sqid1lw7pa)" fill="#F54282">
        <path d="M6 3.5a2 2 0 1 0 0 4 2 2 0 0 0 0-4zm0 3a1 1 0 1 1 0-2 1 1 0 0 1 0 2z"/>
        <path d="M6 12.5a2.635 2.635 0 0 1-2.155-1.1C1.939 8.772.973 6.796.973 5.527a5.028 5.028 0 0 1 10.055 0c0 1.269-.967 3.245-2.872 5.873A2.635 2.635 0 0 1 6 12.5zM6 1.59a3.942 3.942 0 0 0-3.937 3.938c0 1.005.947 2.863 2.665 5.233a1.573 1.573 0 0 0 2.545 0C8.99 8.39 9.937 6.533 9.937 5.528A3.942 3.942 0 0 0 6 1.59z"/>
        <path fill-rule="evenodd" clip-rule="evenodd" d="M1 12a.5.5 0 0 1 .5-.5h9a.5.5 0 0 1 0 1h-9A.5.5 0 0 1 1 12z"/>
    </g>
    <defs>
        <clipPath id="sqid1lw7pa">
            <path fill="#fff" transform="translate(0 .5)" d="M0 0h12v12H0z"/>
        </clipPath>
    </defs>
</svg>
