<svg width="15" height="14" viewBox="0 0 15 14" fill="none" xmlns="http://www.w3.org/2000/svg">
    <path d="m10.729 10.696-.013.011-.012.012c-.91.901-1.917 1.45-3.025 1.67a6.272 6.272 0 0 1-3.485-.335c-1.11-.44-2.006-1.212-2.686-2.222A5.827 5.827 0 0 1 .5 6.5c0-1.546.671-3.105 1.796-4.219l.01-.01.008-.009C3.307 1.17 4.87.5 6.439.5c1.24 0 2.36.333 3.37 1 1.003.663 1.79 1.664 2.241 2.78.45 1.112.563 2.218.337 3.45-.225 1.114-.786 2.21-1.658 2.966z" stroke="#F54282" stroke-miterlimit="10"/>
    <path d="m11.171 10.795 2.787 2.598" stroke="#F54282" stroke-miterlimit="10" stroke-linecap="round"/>
</svg>
